0
SECTION
2
HEADER
9
$INSUNITS
70
4
9
$ACADVER
1
AC1014
9
$HANDSEED
5
FFFF
0
ENDSEC
0
SECTION
2
TABLES
0
TABLE
2
VPORT
5
8
100
AcDbSymbolTable
0
ENDTAB
0
TABLE
2
LTYPE
5
5
100
AcDbSymbolTable
0
LTYPE
5
14
100
AcDbSymbolTableRecord
100
AcDbLinetypeTableRecord
2
BYBLOCK
70
0
0
LTYPE
5
15
100
AcDbSymbolTableRecord
100
AcDbLinetypeTableRecord
2
BYLAYER
70
0
0
ENDTAB
0
TABLE
2
LAYER
5
2
100
AcDbSymbolTable
70
2
0
LAYER
5
50
100
AcDbSymbolTableRecord
100
AcDbLayerTableRecord
2
0
70
0
6
CONTINUOUS
0
ENDTAB
0
TABLE
2
STYLE
5
3
100
AcDbSymbolTable
70
1
0
STYLE
5
11
100
AcDbSymbolTableRecord
100
AcDbTextStyleTableRecord
2
STANDARD
70
0
0
ENDTAB
0
TABLE
2
VIEW
5
6
100
AcDbSymbolTable
70
0
0
ENDTAB
0
TABLE
2
UCS
5
7
100
AcDbSymbolTable
70
0
0
ENDTAB
0
TABLE
2
APPID
5
9
100
AcDbSymbolTable
70
2
0
APPID
5
12
100
AcDbSymbolTableRecord
100
AcDbRegAppTableRecord
2
ACAD
70
0
0
ENDTAB
0
TABLE
2
DIMSTYLE
5
A
100
AcDbSymbolTable
70
1
0
ENDTAB
0
TABLE
2
BLOCK_RECORD
5
1
100
AcDbSymbolTable
70
1
0
BLOCK_RECORD
5
1F
100
AcDbSymbolTableRecord
100
AcDbBlockTableRecord
2
*MODEL_SPACE
0
BLOCK_RECORD
5
1B
100
AcDbSymbolTableRecord
100
AcDbBlockTableRecord
2
*PAPER_SPACE
0
ENDTAB
0
ENDSEC
0
SECTION
2
BLOCKS
0
BLOCK
5
20
100
AcDbEntity
100
AcDbBlockBegin
2
*MODEL_SPACE
0
ENDBLK
5
21
100
AcDbEntity
100
AcDbBlockEnd
0
BLOCK
5
1C
100
AcDbEntity
100
AcDbBlockBegin
2
*PAPER_SPACE
0
ENDBLK
5
1D
100
AcDbEntity
100
AcDbBlockEnd
0
ENDSEC
0
SECTION
2
ENTITIES
0
LWPOLYLINE
5
100
100
AcDbEntity
8
0
100
AcDbPolyline
90
10
70
1
43
0.0
10
132.26627529755592
20
20.358113314383175
10
132.26627529755581
20
140.35811331438259
42
0.41421356237309437
10
124.26627529755585
20
148.35811331438254
10
-110.73372470244303
20
148.35811331438234
42
0.41421356237309437
10
-118.73372470244293
20
140.35811331438236
10
-118.73372470244283
20
20.358113314382944
42
0.41421356237309437
10
-110.73372470244288
20
12.35811331438299
10
18.266275297556476
20
12.358113314383132
10
32.266275297556426
20
12.358113314383132
10
124.26627529755599
20
12.358113314383221
42
0.41421356237309437
0
CIRCLE
5
101
100
AcDbEntity
8
0
100
AcDbCircle
10
122.26627529755586
20
138.35811331438259
30
0
40
2.5
210
0
220
0
230
1
0
CIRCLE
5
102
100
AcDbEntity
8
0
100
AcDbCircle
10
-108.733724702443
20
138.35811331438239
30
0
40
2.5000000000000044
210
0
220
0
230
1
0
CIRCLE
5
103
100
AcDbEntity
8
0
100
AcDbCircle
10
4.2662752975564366
20
138.35811331438248
30
0
40
2.5
210
0
220
0
230
1
0
CIRCLE
5
104
100
AcDbEntity
8
0
100
AcDbCircle
10
-108.7337247024429
20
22.358113314382955
30
0
40
2.4999999999999907
210
0
220
0
230
1
0
CIRCLE
5
105
100
AcDbEntity
8
0
100
AcDbCircle
10
4.266275297556561
20
22.358113314383061
30
0
40
2.5
210
0
220
0
230
1
0
CIRCLE
5
106
100
AcDbEntity
8
0
100
AcDbCircle
10
122.26627529755598
20
22.358113314383168
30
0
40
2.4999999999999996
210
0
220
0
230
1
0
CIRCLE
5
107
100
AcDbEntity
8
0
100
AcDbCircle
10
-97.232036429760953
20
-107.18655387479068
30
0
40
15.000000000000007
210
0
220
0
230
1
0
ARC
5
108
100
AcDbEntity
8
0
100
AcDbCircle
10
-110.98203642976095
20
-132.18655387479066
30
0
40
8.0000000000000071
210
0
220
0
230
1
100
AcDbArc
50
180
51
270
0
LINE
5
109
100
AcDbEntity
8
0
100
AcDbLine
10
32.017963570239033
20
-140.18655387479066
30
0
11
124.01796357023905
21
-140.18655387479066
31
0
0
LINE
5
110
100
AcDbEntity
8
0
100
AcDbLine
10
29.01796357023904
20
-137.18655387479066
30
0
11
21.017963570239026
21
-137.18655387479066
31
0
0
CIRCLE
5
111
100
AcDbEntity
8
0
100
AcDbCircle
10
40.017963570239047
20
-77.186553874790675
30
0
40
12.000000000000007
210
0
220
0
230
1
0
LWPOLYLINE
5
112
100
AcDbEntity
8
0
100
AcDbPolyline
90
8
70
1
43
0.0
10
107.99035120641477
20
-133.3242259069624
42
0.41421356237309503
10
110.99035120641476
20
-130.3242259069624
10
110.99035120641476
20
-124.69168028278872
42
0.41421356237309503
10
107.99035120641479
20
-121.69168028278875
10
50.506427916971184
20
-121.69168028278875
42
0.41421356237309503
10
47.506427916971163
20
-124.69168028278878
10
47.506427916971163
20
-130.32422590696237
42
0.41421356237309503
10
50.506427916971184
20
-133.3242259069624
0
CIRCLE
5
113
100
AcDbEntity
8
0
100
AcDbCircle
10
66.017963570239033
20
-92.186553874790675
30
0
40
11.999999999999993
210
0
220
0
230
1
0
ARC
5
114
100
AcDbEntity
8
0
100
AcDbCircle
10
21.017963570239026
20
-140.18655387479066
30
0
40
2.9999999999999893
210
0
220
-0
230
1
100
AcDbArc
50
90
51
180
0
CIRCLE
5
115
100
AcDbEntity
8
0
100
AcDbCircle
10
96.017963570239033
20
-92.186553874790675
30
0
40
12.000000000000002
210
0
220
0
230
1
0
CIRCLE
5
116
100
AcDbEntity
8
0
100
AcDbCircle
10
-108.98203642976097
20
-130.18655387479066
30
0
40
2.5
210
0
220
0
230
1
0
ARC
5
117
100
AcDbEntity
8
0
100
AcDbCircle
10
29.01796357023904
20
-140.18655387479066
30
0
40
2.9999999999999982
210
0
220
0
230
1
100
AcDbArc
50
0
51
90
0
CIRCLE
5
118
100
AcDbEntity
8
0
100
AcDbCircle
10
-26.232036429760974
20
-116.18655387479066
30
0
40
15.000000000000002
210
0
220
0
230
1
0
CIRCLE
5
119
100
AcDbEntity
8
0
100
AcDbCircle
10
-108.98203642976097
20
-14.186553874790668
30
0
40
2.500000000000008
210
0
220
0
230
1
0
LINE
5
120
100
AcDbEntity
8
0
100
AcDbLine
10
-110.98203642976095
20
-140.18655387479066
30
0
11
18.017963570239033
21
-140.18655387479066
31
0
0
ARC
5
121
100
AcDbEntity
8
0
100
AcDbCircle
10
124.01796357023905
20
-12.186553874790675
30
0
40
8.0000000000000071
210
0
220
0
230
1
100
AcDbArc
50
0
51
90
0
CIRCLE
5
122
100
AcDbEntity
8
0
100
AcDbCircle
10
-62.232036429760953
20
-116.18655387479066
30
0
40
15.000000000000009
210
0
220
0
230
1
0
CIRCLE
5
123
100
AcDbEntity
8
0
100
AcDbCircle
10
122.01796357023906
20
-14.186553874790668
30
0
40
2.5
210
0
220
0
230
1
0
CIRCLE
5
124
100
AcDbEntity
8
0
100
AcDbCircle
10
5.0179635702390435
20
-98.186553874790675
30
0
40
15.000000000000004
210
0
220
0
230
1
0
CIRCLE
5
125
100
AcDbEntity
8
0
100
AcDbCircle
10
5.0179635702390435
20
-59.186553874790668
30
0
40
14.999999999999996
210
0
220
0
230
1
0
CIRCLE
5
126
100
AcDbEntity
8
0
100
AcDbCircle
10
4.017963570239047
20
-14.186553874790668
30
0
40
2.4999999999999933
210
0
220
0
230
1
0
CIRCLE
5
127
100
AcDbEntity
8
0
100
AcDbCircle
10
-26.232036429760974
20
-77.186553874790675
30
0
40
15.000000000000011
210
0
220
0
230
1
0
CIRCLE
5
128
100
AcDbEntity
8
0
100
AcDbCircle
10
122.01796357023906
20
-130.18655387479066
30
0
40
2.5000000000000022
210
0
220
0
230
1
0
ARC
5
129
100
AcDbEntity
8
0
100
AcDbCircle
10
124.01796357023905
20
-132.18655387479066
30
0
40
7.9999999999999893
210
0
220
0
230
1
100
AcDbArc
50
-90
51
0
0
CIRCLE
5
130
100
AcDbEntity
8
0
100
AcDbCircle
10
-97.232036429760953
20
-68.186553874790675
30
0
40
14.999999999999989
210
0
220
0
230
1
0
CIRCLE
5
131
100
AcDbEntity
8
0
100
AcDbCircle
10
-62.232036429760953
20
-77.186553874790675
30
0
40
14.999999999999989
210
0
220
0
230
1
0
CIRCLE
5
132
100
AcDbEntity
8
0
100
AcDbCircle
10
4.017963570239047
20
-130.18655387479066
30
0
40
2.4999999999999982
210
0
220
0
230
1
0
LINE
5
133
100
AcDbEntity
8
0
100
AcDbLine
10
132.01796357023906
20
-132.18655387479066
30
0
11
132.01796357023906
21
-12.186553874790675
31
0
0
CIRCLE
5
134
100
AcDbEntity
8
0
100
AcDbCircle
10
25.017963570239043
20
-23.186553874790672
30
0
40
14.999999999999991
210
0
220
0
230
1
0
ARC
5
135
100
AcDbEntity
8
0
100
AcDbCircle
10
-110.98203642976095
20
-12.186553874790675
30
0
40
8.0000000000000071
210
0
220
-0
230
1
100
AcDbArc
50
90
51
180
0
LINE
5
136
100
AcDbEntity
8
0
100
AcDbLine
10
-118.98203642976097
20
-12.186553874790675
30
0
11
-118.98203642976097
21
-132.18655387479066
31
0
0
LINE
5
137
100
AcDbEntity
8
0
100
AcDbLine
10
124.01796357023905
20
-4.1865538747906683
30
0
11
-110.98203642976095
21
-4.1865538747906683
31
0
0
CIRCLE
5
138
100
AcDbEntity
8
0
100
AcDbCircle
10
4.017963570239047
20
-280.18655387479066
30
0
40
2.4999999999999982
210
0
220
0
230
1
0
LWPOLYLINE
5
139
100
AcDbEntity
8
0
100
AcDbPolyline
90
14
70
1
43
0.0
10
-118.98203642976097
20
-162.18655387479066
10
-118.98203642976097
20
-282.18655387479066
42
0.41421356237309503
10
-110.98203642976095
20
-290.18655387479066
10
13.767963570239035
20
-290.18655387479066
10
13.767963570239035
20
-262.18655387479066
42
-0.41421356237309503
10
15.767963570239028
20
-260.18655387479066
10
34.26796357023904
20
-260.18655387479066
42
-0.41421356237309503
10
36.267963570239033
20
-262.18655387479066
10
36.267963570239033
20
-290.18655387479066
10
124.01796357023905
20
-290.18655387479066
42
0.41421356237309503
10
132.01796357023906
20
-282.18655387479066
10
132.01796357023906
20
-162.18655387479066
42
0.41421356237309503
10
124.01796357023905
20
-154.18655387479066
10
-110.98203642976095
20
-154.18655387479066
42
0.41421356237309503
0
CIRCLE
5
140
100
AcDbEntity
8
0
100
AcDbCircle
10
5.0179635702390435
20
-209.18655387479066
30
0
40
14.999999999999996
210
0
220
0
230
1
0
CIRCLE
5
141
100
AcDbEntity
8
0
100
AcDbCircle
10
-97.232036429760953
20
-218.18655387479069
30
0
40
14.999999999999989
210
0
220
0
230
1
0
CIRCLE
5
142
100
AcDbEntity
8
0
100
AcDbCircle
10
-108.98203642976097
20
-280.18655387479066
30
0
40
2.5
210
0
220
0
230
1
0
CIRCLE
5
143
100
AcDbEntity
8
0
100
AcDbCircle
10
-97.232036429760953
20
-257.18655387479066
30
0
40
15.000000000000007
210
0
220
0
230
1
0
LWPOLYLINE
5
144
100
AcDbEntity
8
0
100
AcDbPolyline
90
8
70
1
43
0.0
10
50.506427916971184
20
-271.69168028278875
42
0.41421356237309503
10
47.506427916971163
20
-274.69168028278875
10
47.506427916971163
20
-280.32422590696234
42
0.41421356237309503
10
50.506427916971184
20
-283.3242259069624
10
107.99035120641477
20
-283.3242259069624
42
0.41421356237309503
10
110.99035120641476
20
-280.3242259069624
10
110.99035120641476
20
-274.69168028278875
42
0.41421356237309503
10
107.99035120641479
20
-271.69168028278875
0
CIRCLE
5
145
100
AcDbEntity
8
0
100
AcDbCircle
10
25.017963570239043
20
-173.18655387479069
30
0
40
14.999999999999991
210
0
220
0
230
1
0
CIRCLE
5
146
100
AcDbEntity
8
0
100
AcDbCircle
10
122.01796357023906
20
-164.18655387479066
30
0
40
2.5
210
0
220
0
230
1
0
CIRCLE
5
147
100
AcDbEntity
8
0
100
AcDbCircle
10
-26.232036429760974
20
-266.18655387479066
30
0
40
15.000000000000002
210
0
220
0
230
1
0
CIRCLE
5
148
100
AcDbEntity
8
0
100
AcDbCircle
10
5.0179635702390435
20
-248.18655387479069
30
0
40
15.000000000000004
210
0
220
0
230
1
0
CIRCLE
5
149
100
AcDbEntity
8
0
100
AcDbCircle
10
-62.232036429760953
20
-227.18655387479066
30
0
40
14.999999999999989
210
0
220
0
230
1
0
CIRCLE
5
150
100
AcDbEntity
8
0
100
AcDbCircle
10
-26.232036429760974
20
-227.18655387479066
30
0
40
15.000000000000011
210
0
220
0
230
1
0
CIRCLE
5
151
100
AcDbEntity
8
0
100
AcDbCircle
10
-108.98203642976097
20
-164.18655387479066
30
0
40
2.500000000000008
210
0
220
0
230
1
0
CIRCLE
5
152
100
AcDbEntity
8
0
100
AcDbCircle
10
4.017963570239047
20
-164.18655387479066
30
0
40
2.4999999999999933
210
0
220
0
230
1
0
CIRCLE
5
153
100
AcDbEntity
8
0
100
AcDbCircle
10
122.01796357023906
20
-280.18655387479066
30
0
40
2.5000000000000022
210
0
220
0
230
1
0
CIRCLE
5
154
100
AcDbEntity
8
0
100
AcDbCircle
10
-62.232036429760953
20
-266.18655387479066
30
0
40
15.000000000000009
210
0
220
0
230
1
0
CIRCLE
5
155
100
AcDbEntity
8
0
100
AcDbCircle
10
40.017963570239047
20
-227.18655387479066
30
0
40
12.000000000000007
210
0
220
0
230
1
0
CIRCLE
5
156
100
AcDbEntity
8
0
100
AcDbCircle
10
96.017963570239033
20
-242.18655387479066
30
0
40
12.000000000000002
210
0
220
0
230
1
0
CIRCLE
5
157
100
AcDbEntity
8
0
100
AcDbCircle
10
66.017963570239033
20
-242.18655387479066
30
0
40
11.999999999999993
210
0
220
0
230
1
0
CIRCLE
5
158
100
AcDbEntity
8
0
100
AcDbCircle
10
4.017963570239047
20
-430.18655387479072
30
0
40
2.4999999999999982
210
0
220
0
230
1
0
LWPOLYLINE
5
159
100
AcDbEntity
8
0
100
AcDbPolyline
90
14
70
1
43
0.0
10
-118.98203642976097
20
-312.18655387479066
10
-118.98203642976097
20
-432.18655387479066
42
0.41421356237309503
10
-110.98203642976095
20
-440.18655387479066
10
13.767963570239035
20
-440.18655387479066
10
13.767963570239035
20
-412.18655387479066
42
-0.41421356237309503
10
15.767963570239063
20
-410.18655387479066
10
34.26796357023904
20
-410.18655387479072
42
-0.41421356237309503
10
36.267963570239033
20
-412.18655387479066
10
36.267963570239033
20
-440.18655387479066
10
124.01796357023905
20
-440.18655387479066
42
0.41421356237309503
10
132.01796357023906
20
-432.18655387479066
10
132.01796357023906
20
-312.18655387479066
42
0.41421356237309503
10
124.01796357023905
20
-304.18655387479066
10
-110.98203642976095
20
-304.18655387479066
42
0.41421356237309503
0
CIRCLE
5
160
100
AcDbEntity
8
0
100
AcDbCircle
10
5.0179635702390435
20
-359.18655387479066
30
0
40
14.999999999999996
210
0
220
0
230
1
0
CIRCLE
5
161
100
AcDbEntity
8
0
100
AcDbCircle
10
-97.232036429760953
20
-368.18655387479066
30
0
40
14.999999999999989
210
0
220
0
230
1
0
CIRCLE
5
162
100
AcDbEntity
8
0
100
AcDbCircle
10
-108.98203642976097
20
-430.18655387479072
30
0
40
2.5
210
0
220
0
230
1
0
CIRCLE
5
163
100
AcDbEntity
8
0
100
AcDbCircle
10
-97.232036429760953
20
-407.18655387479066
30
0
40
15.000000000000007
210
0
220
0
230
1
0
LWPOLYLINE
5
164
100
AcDbEntity
8
0
100
AcDbPolyline
90
8
70
1
43
0.0
10
50.506427916971184
20
-421.69168028278875
42
0.41421356237309503
10
47.506427916971163
20
-424.69168028278875
10
47.506427916971163
20
-430.32422590696234
42
0.41421356237309503
10
50.506427916971184
20
-433.3242259069624
10
107.99035120641477
20
-433.3242259069624
42
0.41421356237309503
10
110.99035120641476
20
-430.3242259069624
10
110.99035120641476
20
-424.69168028278875
42
0.41421356237309503
10
107.99035120641479
20
-421.69168028278875
0
CIRCLE
5
165
100
AcDbEntity
8
0
100
AcDbCircle
10
25.017963570239043
20
-323.18655387479066
30
0
40
14.999999999999991
210
0
220
0
230
1
0
CIRCLE
5
166
100
AcDbEntity
8
0
100
AcDbCircle
10
122.01796357023906
20
-314.18655387479066
30
0
40
2.5
210
0
220
0
230
1
0
CIRCLE
5
167
100
AcDbEntity
8
0
100
AcDbCircle
10
-26.232036429760974
20
-416.18655387479066
30
0
40
15.000000000000002
210
0
220
0
230
1
0
CIRCLE
5
168
100
AcDbEntity
8
0
100
AcDbCircle
10
5.0179635702390435
20
-398.18655387479066
30
0
40
15.000000000000004
210
0
220
0
230
1
0
CIRCLE
5
169
100
AcDbEntity
8
0
100
AcDbCircle
10
-62.232036429760953
20
-377.18655387479066
30
0
40
14.999999999999989
210
0
220
0
230
1
0
CIRCLE
5
170
100
AcDbEntity
8
0
100
AcDbCircle
10
-26.232036429760974
20
-377.18655387479066
30
0
40
15.000000000000011
210
0
220
0
230
1
0
CIRCLE
5
171
100
AcDbEntity
8
0
100
AcDbCircle
10
-108.98203642976097
20
-314.18655387479066
30
0
40
2.500000000000008
210
0
220
0
230
1
0
CIRCLE
5
172
100
AcDbEntity
8
0
100
AcDbCircle
10
4.017963570239047
20
-314.18655387479066
30
0
40
2.4999999999999933
210
0
220
0
230
1
0
CIRCLE
5
173
100
AcDbEntity
8
0
100
AcDbCircle
10
122.01796357023906
20
-430.18655387479072
30
0
40
2.5000000000000022
210
0
220
0
230
1
0
CIRCLE
5
174
100
AcDbEntity
8
0
100
AcDbCircle
10
-62.232036429760953
20
-416.18655387479066
30
0
40
15.000000000000009
210
0
220
0
230
1
0
CIRCLE
5
175
100
AcDbEntity
8
0
100
AcDbCircle
10
40.017963570239047
20
-377.18655387479066
30
0
40
12.000000000000007
210
0
220
0
230
1
0
CIRCLE
5
176
100
AcDbEntity
8
0
100
AcDbCircle
10
96.017963570239033
20
-392.18655387479066
30
0
40
12.000000000000002
210
0
220
0
230
1
0
CIRCLE
5
177
100
AcDbEntity
8
0
100
AcDbCircle
10
66.017963570239033
20
-392.18655387479066
30
0
40
11.999999999999993
210
0
220
0
230
1
0
LINE
5
178
100
AcDbEntity
8
0
100
AcDbLine
10
124.01796357023905
20
-454.18655387479066
30
0
11
-110.98203642976095
21
-454.18655387479066
31
0
0
CIRCLE
5
179
100
AcDbEntity
8
0
100
AcDbCircle
10
-97.232036429760953
20
-557.18655387479066
30
0
40
15.000000000000007
210
0
220
0
230
1
0
LINE
5
180
100
AcDbEntity
8
0
100
AcDbLine
10
32.017963570239019
20
-590.18655387479066
30
0
11
124.01796357023905
21
-590.18655387479066
31
0
0
LINE
5
181
100
AcDbEntity
8
0
100
AcDbLine
10
-110.98203642976095
20
-590.18655387479066
30
0
11
18.017963570239019
21
-590.18655387479066
31
0
0
CIRCLE
5
182
100
AcDbEntity
8
0
100
AcDbCircle
10
-97.232036429760953
20
-518.18655387479066
30
0
40
14.999999999999989
210
0
220
0
230
1
0
CIRCLE
5
183
100
AcDbEntity
8
0
100
AcDbCircle
10
-62.232036429760953
20
-527.18655387479066
30
0
40
14.999999999999989
210
0
220
0
230
1
0
CIRCLE
5
184
100
AcDbEntity
8
0
100
AcDbCircle
10
-62.232036429760953
20
-566.18655387479066
30
0
40
15.000000000000009
210
0
220
0
230
1
0
LINE
5
185
100
AcDbEntity
8
0
100
AcDbLine
10
-118.98203642976097
20
-462.18655387479066
30
0
11
-118.98203642976097
21
-582.18655387479066
31
0
0
LINE
5
186
100
AcDbEntity
8
0
100
AcDbLine
10
132.01796357023906
20
-582.18655387479066
30
0
11
132.01796357023906
21
-462.18655387479066
31
0
0
CIRCLE
5
187
100
AcDbEntity
8
0
100
AcDbCircle
10
66.017963570239033
20
-542.18655387479066
30
0
40
11.999999999999993
210
0
220
0
230
1
0
CIRCLE
5
188
100
AcDbEntity
8
0
100
AcDbCircle
10
4.017963570239047
20
-464.18655387479066
30
0
40
2.4999999999999933
210
0
220
0
230
1
0
CIRCLE
5
189
100
AcDbEntity
8
0
100
AcDbCircle
10
-108.98203642976097
20
-580.18655387479066
30
0
40
2.5
210
0
220
0
230
1
0
CIRCLE
5
190
100
AcDbEntity
8
0
100
AcDbCircle
10
25.017963570239043
20
-473.18655387479066
30
0
40
14.999999999999991
210
0
220
0
230
1
0
CIRCLE
5
191
100
AcDbEntity
8
0
100
AcDbCircle
10
-26.232036429760974
20
-566.18655387479066
30
0
40
15.000000000000002
210
0
220
0
230
1
0
CIRCLE
5
192
100
AcDbEntity
8
0
100
AcDbCircle
10
40.017963570239047
20
-527.18655387479066
30
0
40
12.000000000000007
210
0
220
0
230
1
0
CIRCLE
5
193
100
AcDbEntity
8
0
100
AcDbCircle
10
122.01796357023906
20
-580.18655387479066
30
0
40
2.5000000000000022
210
0
220
0
230
1
0
CIRCLE
5
194
100
AcDbEntity
8
0
100
AcDbCircle
10
72.747963570239037
20
-577.51655387479059
30
0
40
2.9999999999999978
210
0
220
0
230
1
0
CIRCLE
5
195
100
AcDbEntity
8
0
100
AcDbCircle
10
96.017963570239033
20
-542.18655387479066
30
0
40
12.000000000000002
210
0
220
0
230
1
0
CIRCLE
5
196
100
AcDbEntity
8
0
100
AcDbCircle
10
5.0179635702390435
20
-548.18655387479066
30
0
40
15.000000000000004
210
0
220
0
230
1
0
ARC
5
197
100
AcDbEntity
8
0
100
AcDbCircle
10
124.01796357023905
20
-582.18655387479066
30
0
40
7.9999999999999716
210
0
220
0
230
1
100
AcDbArc
50
-90
51
0
0
CIRCLE
5
198
100
AcDbEntity
8
0
100
AcDbCircle
10
4.017963570239047
20
-580.18655387479066
30
0
40
2.4999999999999982
210
0
220
0
230
1
0
CIRCLE
5
199
100
AcDbEntity
8
0
100
AcDbCircle
10
62.747963570239037
20
-577.51655387479059
30
0
40
2.9999999999999978
210
0
220
0
230
1
0
CIRCLE
5
200
100
AcDbEntity
8
0
100
AcDbCircle
10
85.747963570239051
20
-577.51655387479059
30
0
40
2.9999999999999978
210
0
220
0
230
1
0
CIRCLE
5
201
100
AcDbEntity
8
0
100
AcDbCircle
10
95.747963570239051
20
-577.51655387479059
30
0
40
2.9999999999999978
210
0
220
0
230
1
0
CIRCLE
5
202
100
AcDbEntity
8
0
100
AcDbCircle
10
105.74796357023905
20
-577.51655387479059
30
0
40
2.9999999999999978
210
0
220
0
230
1
0
CIRCLE
5
203
100
AcDbEntity
8
0
100
AcDbCircle
10
52.747963570239037
20
-577.51655387479059
30
0
40
2.9999999999999978
210
0
220
0
230
1
0
CIRCLE
5
204
100
AcDbEntity
8
0
100
AcDbCircle
10
122.01796357023906
20
-464.18655387479066
30
0
40
2.5
210
0
220
0
230
1
0
ARC
5
205
100
AcDbEntity
8
0
100
AcDbCircle
10
124.01796357023905
20
-462.18655387479066
30
0
40
8.0000000000000071
210
0
220
0
230
1
100
AcDbArc
50
0
51
90
0
ARC
5
206
100
AcDbEntity
8
0
100
AcDbCircle
10
-110.98203642976095
20
-462.18655387479066
30
0
40
8.0000000000000426
210
0
220
-0
230
1
100
AcDbArc
50
90
51
180
0
CIRCLE
5
207
100
AcDbEntity
8
0
100
AcDbCircle
10
5.0179635702390435
20
-509.18655387479066
30
0
40
14.999999999999996
210
0
220
0
230
1
0
CIRCLE
5
208
100
AcDbEntity
8
0
100
AcDbCircle
10
-108.98203642976097
20
-464.18655387479066
30
0
40
2.500000000000008
210
0
220
0
230
1
0
CIRCLE
5
209
100
AcDbEntity
8
0
100
AcDbCircle
10
-26.232036429760974
20
-527.18655387479066
30
0
40
15.000000000000011
210
0
220
0
230
1
0
ARC
5
210
100
AcDbEntity
8
0
100
AcDbCircle
10
-110.98203642976095
20
-582.18655387479066
30
0
40
8.0000000000000071
210
0
220
0
230
1
100
AcDbArc
50
180
51
270
0
LINE
5
211
100
AcDbEntity
8
0
100
AcDbLine
10
29.017963570239019
20
-587.18655387479066
30
0
11
21.017963570239019
21
-587.18655387479066
31
0
0
ARC
5
212
100
AcDbEntity
8
0
100
AcDbCircle
10
21.017963570239019
20
-590.18655387479066
30
0
40
2.9999999999999716
210
0
220
-0
230
1
100
AcDbArc
50
90
51
180
0
ARC
5
213
100
AcDbEntity
8
0
100
AcDbCircle
10
29.017963570239019
20
-590.18655387479066
30
0
40
2.9999999999999716
210
0
220
-0
230
1
100
AcDbArc
50
0
51
90
0
ENDSEC
0
SECTION
2
OBJECTS
0
DICTIONARY
5
C
100
AcDbDictionary
3
ACAD_GROUP
350
D
3
ACAD_MLINESTYLE
350
17
0
DICTIONARY
5
D
100
AcDbDictionary
0
DICTIONARY
5
1A
330
C
100
AcDbDictionary
0
DICTIONARY
5
17
100
AcDbDictionary
0
ENDSEC
0
EOF
